<?xml version="1.0" encoding="UTF-8"?><svg id="Layer_1" xmlns="http://www.w3.org/2000/svg" viewBox="0 0 512 512"><defs><style>.cls-1{fill:#2b6e37;}.cls-2{fill:none;stroke:#2b6e37;stroke-miterlimit:10;stroke-width:1.12px;}</style></defs><path class="cls-1" d="M490.61,475.03c5.74,3.36,11.69,5.82,17.7,7.32-15.07,4.29-30.49,5.56-46.16,5.08-29.66-.92-36.13-11.81-36.13-11.81l-.04-31.03v-.17h-.06s.03-188.35.03-188.35l-.03-188.34h.06v-.17l-8.73,4.43c-23.44,11.9-46.25,28.25-67.79,48.61-21.44,20.28-40.66,42.23-57.15,65.25l-2.26,3.15,1.92,3.36c6.32,11.05,10.53,21.6,12.51,31.35,2.03,9.94,3.06,19.14,3.06,27.36,0,18.02-5.19,30.78-15.85,39.03-10.78,8.36-22.27,12.56-35.08,12.81v.03c-.21,0-.42-.01-.63-.01-.21,0-.42.01-.63.01v-.03c-12.81-.26-24.3-4.45-35.08-12.81-10.66-8.25-15.85-21.02-15.85-39.03,0-8.22,1.03-17.43,3.06-27.36,1.98-9.75,6.19-20.29,12.51-31.35l1.92-3.36-2.26-3.15c-16.49-23.02-35.71-44.97-57.15-65.25-21.54-20.36-44.35-36.71-67.79-48.61l-8.73-4.43v.17h.06s-.03,188.35-.03,188.35l.03,188.34h-.06v.17l-.04,31.03s-6.47,10.88-36.13,11.81c-15.67.49-31.09-.79-46.16-5.08,6.02-1.5,11.96-3.96,17.7-7.32,7.36-4.32,12.55-11.1,15.43-20.13V57.25c-2.89-9.03-8.07-15.81-15.43-20.13-5.74-3.36-11.69-5.82-17.7-7.32,15.07-4.29,30.51-6,46.16-5.08,25.24,1.47,50.26,7.46,74.38,17.81,24.25,10.41,47.68,24.25,69.63,41.14,22.01,16.95,41.6,35.38,58.22,54.76l3.93,4.58,3.93-4.58c16.62-19.39,36.21-37.81,58.22-54.76,21.95-16.89,45.38-30.73,69.63-41.14,24.12-10.34,49.14-16.33,74.38-17.81,15.65-.92,31.09.79,46.16,5.08-6.02,1.5-11.96,3.96-17.7,7.32-7.36,4.32-12.55,11.1-15.43,20.13v397.65c2.89,9.03,8.07,15.81,15.43,20.13ZM275.17,249.49c0-11.95-9.21-25.3-19.17-36.54-9.95,11.24-19.17,24.59-19.17,36.54s8.59,21.63,19.17,21.63,19.17-9.68,19.17-21.63Z"/><path class="cls-2" d="M82.1,58.5v410.16c32.97,22.34,63.79,9.55,75.5,3.16-1.14-4.18-2.28-8.7-3.42-13.49-9.98-41.72-20.32-105.47-30.31-170.45L82.1,58.5Z"/><path class="cls-2" d="M191.92,438.16c-1.28-5.35-2.65-10.95-4.08-16.77-24.84-91.61-68.82-254-93.26-331.87-4.98-15.67-9.02-22.2-11.73-29.16-.25-.65-.51-1.29-.75-1.87,11.2,27.36,26.05,127.15,41.76,229.37l30.31,170.45c18.54,1.44,33.72-5.2,41.17-9.27-.93-3.43-1.92-7.08-2.95-10.87-.16,0-.31-.01-.47-.02Z"/><path class="cls-2" d="M94.57,89.52c23.78,74.85,69.03,233.86,93.26,331.87,1.6,5.9,3.12,11.51,4.55,16.79,18.33,1.14,33.32-14.75,40.7-18.78C206.51,321.61,101.24,105.25,82.1,58.5c.24.58.49,1.2.75,1.87,2.99,7.61,6.99,14.05,11.73,29.16Z"/><path class="cls-2" d="M428.89,57.92v410.16c-32.97,22.34-63.79,9.55-75.5,3.16,1.14-4.18,2.28-8.7,3.42-13.49,9.98-41.72,20.32-105.47,30.31-170.45l41.76-229.37Z"/><path class="cls-2" d="M319.07,437.58c1.28-5.35,2.65-10.95,4.08-16.77,24.84-91.61,68.82-254,93.26-331.87,4.98-15.67,9.02-22.2,11.73-29.16.25-.65.51-1.29.75-1.87-11.2,27.36-26.05,127.15-41.76,229.37l-30.31,170.45c-18.54,1.44-33.72-5.2-41.17-9.27.93-3.43,1.92-7.08,2.95-10.87.16,0,.31-.01.47-.02Z"/><path class="cls-2" d="M416.41,88.94c-23.78,74.85-69.03,233.86-93.26,331.87-1.6,5.9-3.12,11.51-4.55,16.79-18.33,1.14-33.32-14.75-40.7-18.78,26.58-97.79,131.85-314.15,150.99-360.91-.24.58-.49,1.2-.75,1.87-2.99,7.61-6.99,14.05-11.73,29.16Z"/></svg>